# Blender v2.91.1 OBJ File: ''
# www.blender.org
mtllib New Banner.mtl
o default_0.315
v 0.000000 -2.726280 0.505157
v 0.000000 -2.726280 0.585102
v 0.000000 -2.470145 0.590112
v 0.000000 -2.470145 0.442737
v 0.000000 -2.008041 0.590112
v 0.000000 -2.726280 0.327405
v 0.000000 -2.008041 0.442737
v 0.000000 -1.577688 0.590112
v 0.000000 -2.470145 0.295363
v 0.000000 -2.726280 0.162870
v 0.000000 -1.577688 0.442737
v 0.000000 -1.093775 0.590112
v 0.000000 -2.470145 0.147989
v 0.000000 -2.726280 -0.000000
v 0.000000 -2.474272 -0.000000
v 0.000000 -2.008041 0.295363
v 0.000000 -2.008041 0.147989
v 0.000000 -2.012168 -0.000000
v 0.000000 -1.093775 0.442737
v 0.000000 -0.661036 0.590112
v 0.000000 -1.577688 0.295363
v 0.000000 -1.577688 0.147989
v 0.000000 -1.581815 -0.000000
v 0.000000 -1.093775 0.295363
v 0.000000 -1.093775 0.147989
v 0.000000 -1.097902 -0.000000
v 0.000000 -0.661036 0.442737
v 0.000000 -0.661036 0.147989
v 0.000000 -0.665163 -0.000000
v 0.000000 -0.661036 0.295363
v 0.000000 -0.056343 0.442737
v 0.000000 -0.056343 0.590112
v 0.000000 0.047863 0.442737
v 0.000000 0.047863 0.590112
v 0.000000 -0.056343 0.295363
v 0.000000 -0.056343 0.147989
v 0.000000 -0.060470 -0.000000
v 0.000000 0.047863 0.147989
v 0.000000 0.047863 0.295363
v 0.000000 -2.726280 -0.585102
v 0.000000 -2.726280 -0.505158
v 0.000000 -2.470145 -0.590112
v 0.000000 -2.470145 -0.442737
v 0.000000 -2.008041 -0.590112
v 0.000000 -2.726280 -0.327406
v 0.000000 -2.008041 -0.442737
v 0.000000 -1.577688 -0.590112
v 0.000000 -2.470145 -0.295363
v 0.000000 -2.726280 -0.162871
v 0.000000 -1.577688 -0.442737
v 0.000000 -1.093775 -0.590112
v 0.000000 -2.470145 -0.147989
v 0.000000 -2.726280 -0.000000
v 0.000000 -2.474272 -0.000000
v 0.000000 -2.008041 -0.295363
v 0.000000 -2.008041 -0.147989
v 0.000000 -2.012168 -0.000000
v 0.000000 -1.093775 -0.442737
v 0.000000 -0.661036 -0.590112
v 0.000000 -1.577688 -0.295363
v 0.000000 -1.577688 -0.147989
v 0.000000 -1.581815 -0.000000
v 0.000000 -1.093775 -0.295363
v 0.000000 -1.093775 -0.147989
v 0.000000 -1.097902 -0.000000
v 0.000000 -0.661036 -0.442737
v 0.000000 -0.661036 -0.147989
v 0.000000 -0.665163 -0.000000
v 0.000000 -0.661036 -0.295363
v 0.000000 -0.056343 -0.442737
v 0.000000 -0.056343 -0.590112
v 0.000000 0.047863 -0.442737
v 0.000000 0.047863 -0.590112
v 0.000000 -0.056343 -0.295363
v 0.000000 -0.056343 -0.147989
v 0.000000 -0.060470 -0.000000
v 0.000000 0.047863 -0.147989
v 0.000000 0.047863 -0.295363
vt 0.427424 0.010591
vt 0.455959 0.010591
vt 0.457747 0.100288
vt 0.405144 0.100288
vt 0.457747 0.262115
vt 0.363978 0.010591
vt 0.405144 0.262115
vt 0.457747 0.412823
vt 0.352541 0.100288
vt 0.305250 0.010591
vt 0.405144 0.412823
vt 0.457747 0.582288
vt 0.299938 0.100288
vt 0.247116 0.010591
vt 0.247116 0.098843
vt 0.352541 0.262115
vt 0.299938 0.262115
vt 0.247116 0.260670
vt 0.405144 0.582288
vt 0.457747 0.733831
vt 0.352541 0.412823
vt 0.299938 0.412823
vt 0.247116 0.411378
vt 0.352541 0.582288
vt 0.299938 0.582288
vt 0.247116 0.580843
vt 0.405144 0.733831
vt 0.299938 0.733831
vt 0.247116 0.732386
vt 0.352541 0.733831
vt 0.405144 0.938737
vt 0.457747 0.938737
vt 0.405144 0.982085
vt 0.457747 0.982085
vt 0.352541 0.938737
vt 0.299938 0.938737
vt 0.247116 0.937292
vt 0.299938 0.982085
vt 0.352541 0.982085
vt 0.038273 0.010591
vt 0.066808 0.010591
vt 0.036485 0.100288
vt 0.089088 0.100288
vt 0.036485 0.262115
vt 0.130254 0.010591
vt 0.089088 0.262115
vt 0.036485 0.412823
vt 0.141691 0.100288
vt 0.188982 0.010591
vt 0.089088 0.412823
vt 0.036485 0.582288
vt 0.194294 0.100288
vt 0.247116 0.010591
vt 0.247116 0.098843
vt 0.141691 0.262115
vt 0.194294 0.262115
vt 0.247116 0.260670
vt 0.089088 0.582288
vt 0.036485 0.733832
vt 0.141691 0.412823
vt 0.194294 0.412823
vt 0.247116 0.411378
vt 0.141691 0.582288
vt 0.194294 0.582288
vt 0.247116 0.580843
vt 0.089088 0.733831
vt 0.194294 0.733831
vt 0.247116 0.732386
vt 0.141691 0.733831
vt 0.089088 0.938737
vt 0.036485 0.938737
vt 0.089088 0.982085
vt 0.036485 0.982085
vt 0.141691 0.938737
vt 0.194294 0.938737
vt 0.247116 0.937292
vt 0.194294 0.982085
vt 0.141691 0.982085
vn -1.0000 0.0000 0.0000
vn 1.0000 0.0000 -0.0000
usemtl Default_OBJ.316
s 1
f 1/1/1 2/2/2 3/3/1
f 4/4/1 1/1/1 3/3/1
f 4/4/1 3/3/1 5/5/1
f 6/6/1 1/1/1 4/4/1
f 7/7/1 4/4/1 5/5/1
f 7/7/1 5/5/1 8/8/1
f 9/9/1 6/6/1 4/4/1
f 9/9/1 4/4/1 7/7/1
f 10/10/1 6/6/1 9/9/1
f 11/11/1 7/7/1 8/8/1
f 11/11/1 8/8/1 12/12/1
f 13/13/1 10/10/1 9/9/1
f 14/14/1 10/10/1 13/13/1
f 15/15/1 14/14/1 13/13/1
f 16/16/1 9/9/1 7/7/1
f 13/13/1 9/9/1 16/16/1
f 16/16/1 7/7/1 11/11/1
f 15/15/1 13/13/1 17/17/1
f 17/17/1 13/13/1 16/16/1
f 18/18/1 15/15/1 17/17/1
f 19/19/1 11/11/1 12/12/1
f 19/19/1 12/12/1 20/20/1
f 21/21/1 16/16/1 11/11/1
f 17/17/1 16/16/1 21/21/1
f 21/21/1 11/11/1 19/19/1
f 18/18/1 17/17/1 22/22/1
f 22/22/1 17/17/1 21/21/1
f 23/23/1 18/18/1 22/22/1
f 24/24/1 21/21/1 19/19/1
f 22/22/1 21/21/1 24/24/1
f 23/23/1 22/22/1 25/25/1
f 25/25/1 22/22/1 24/24/1
f 26/26/1 23/23/1 25/25/1
f 27/27/1 19/19/1 20/20/1
f 24/24/1 19/19/1 27/27/1
f 26/26/1 25/25/1 28/28/1
f 29/29/1 26/26/1 28/28/1
f 25/25/1 24/24/1 30/30/1
f 30/30/1 24/24/1 27/27/1
f 28/28/1 25/25/1 30/30/1
f 31/31/1 27/27/1 20/20/1
f 30/30/1 27/27/1 31/31/1
f 32/32/1 31/31/1 20/20/1
f 33/33/1 31/31/1 32/32/1
f 34/34/1 33/33/1 32/32/1
f 35/35/1 30/30/1 31/31/1
f 28/28/1 30/30/1 35/35/1
f 29/29/1 28/28/1 36/36/1
f 36/36/1 28/28/1 35/35/1
f 37/37/1 29/29/1 36/36/1
f 38/38/1 36/36/1 35/35/1
f 39/39/1 38/38/1 35/35/1
f 40/40/2 41/41/1 42/42/1
f 41/41/1 43/43/1 42/42/1
f 42/42/1 43/43/1 44/44/1
f 41/41/1 45/45/1 43/43/1
f 43/43/1 46/46/1 44/44/1
f 44/44/1 46/46/1 47/47/1
f 45/45/1 48/48/1 43/43/1
f 43/43/1 48/48/1 46/46/1
f 45/45/1 49/49/1 48/48/1
f 46/46/1 50/50/1 47/47/1
f 47/47/1 50/50/1 51/51/1
f 49/49/1 52/52/1 48/48/1
f 49/49/1 53/53/1 52/52/1
f 53/53/1 54/54/1 52/52/1
f 48/48/1 55/55/1 46/46/1
f 48/48/1 52/52/1 55/55/1
f 46/46/1 55/55/1 50/50/1
f 52/52/1 54/54/1 56/56/1
f 52/52/1 56/56/1 55/55/1
f 54/54/1 57/57/1 56/56/1
f 50/50/1 58/58/1 51/51/1
f 51/51/1 58/58/1 59/59/1
f 55/55/1 60/60/1 50/50/1
f 55/55/1 56/56/1 60/60/1
f 50/50/1 60/60/1 58/58/1
f 56/56/1 57/57/1 61/61/1
f 56/56/1 61/61/1 60/60/1
f 57/57/1 62/62/1 61/61/1
f 60/60/1 63/63/1 58/58/1
f 60/60/1 61/61/1 63/63/1
f 61/61/1 62/62/1 64/64/1
f 61/61/1 64/64/1 63/63/1
f 62/62/1 65/65/1 64/64/1
f 58/58/1 66/66/1 59/59/1
f 58/58/1 63/63/1 66/66/1
f 64/64/1 65/65/1 67/67/1
f 65/65/1 68/68/1 67/67/1
f 63/63/1 64/64/1 69/69/1
f 63/63/1 69/69/1 66/66/1
f 64/64/1 67/67/1 69/69/1
f 66/66/1 70/70/1 59/59/1
f 66/66/1 69/69/1 70/70/1
f 70/70/1 71/71/1 59/59/1
f 70/70/1 72/72/1 71/71/1
f 72/72/1 73/73/1 71/71/1
f 69/69/1 74/74/1 70/70/1
f 69/69/1 67/67/1 74/74/1
f 67/67/1 68/68/1 75/75/1
f 67/67/1 75/75/1 74/74/1
f 68/68/1 76/76/1 75/75/1
f 75/75/1 77/77/1 74/74/1
f 77/77/1 78/78/1 74/74/1
